<?xml version="1.0" encoding="UTF-8"?>
<svg id="Capa_2" data-name="Capa 2" xmlns="http://www.w3.org/2000/svg" viewBox="0 0 990.01 257.55">
  <g id="Capa_1-2" data-name="Capa 1">
    <g>
      <path d="M355.03,89.76c0-16.81,20.22-23.87,37.02-23.87,26.79,0,47.5,21.92,51.15,44.09h1.22c0-21.64-15.31-40.34-36.57-44.38-5.39-1.03-10.85-1.65-16.04-1.65-23.38,0-56.51,8.28-56.51,37.51,0,41.9,96.21,42.87,96.21,83.06,0,23.03-20.7,28.51-33.07,29.81-12.6.09-25.11-5.22-35.49-12.35-4.77-3.25-9.24-6.96-13.23-11.07-4.8-4.65-8.54-13.24-16.89-9.95-5.97,2.75-9.68,8.04-14.31,12.28-2.86,2.89-5.92,5.52-9.19,7.81-8.52,4.02-18.64,6.12-29.56,6.12-29.96,0-58.95-24.84-58.95-71.61,0-6.78.72-13.07,1.92-19.36.01-.07.08-.12.15-.12h105.46c1.05,0,1.85-.88,1.83-1.92,0,0,0-.01,0-.02,0,0,0-.01,0-.02-2.44-12.19-16.33-48.95-61.87-48.95-31.18,0-56.75,20.22-66.74,48.96-.24.73-.48,1.45-.73,1.94,0,0,0,.01,0,.02-2.43,7.79-3.65,16.07-3.65,24.59,0,41.9,32.4,75.75,72.59,75.75,13.07,0,25.69-3.63,36.59-10.05,5.59-2.38,10.78-5.78,15.27-9.7,3.45-2.86,6.57-6,10.05-8.63,5.62-4.43,6.98-.9,10.59,3.52,4.99,5.97,11.02,11.02,17.53,15.19,12.46,8.03,29,13.16,43.5,9.07,26.39-3.55,50.61-18.26,50.61-42.27,0-44.09-98.89-49.69-98.89-83.79ZM269.05,67.11c25.33,0,37.02,23.63,39.95,40.92,0,.76.6.93-.08,2.37-1.09,2.31-3.49,3.72-6.05,3.72h-79.42c-.1,0-.17-.09-.15-.19,5.89-27.67,23.39-46.82,45.75-46.82Z"/>
      <path d="M498.49,211.55c-4.87,0-15.35-.97-15.35-23.14v-121.54h29.23v-1.95h-29.23V26.67h-1.71l-21.92,14.61v23.63h-13.88v1.95h13.88v122.52c0,11.2,6.09,27.04,26.55,27.04,16.81,0,23.14-6.33,27.28-10.23l-.49-.97c-2.92,2.68-8.52,6.33-14.37,6.33Z"/>
      <path d="M630.75,114.11c-2.44-12.19-16.33-48.95-61.87-48.95-31.18,0-56.75,20.22-66.74,48.96-.24.73-.48,1.45-.73,1.94,0,0,0,.01,0,.02-2.43,7.79-3.65,16.07-3.65,24.59,0,41.9,32.4,75.75,72.59,75.75,21.43,0,41.65-9.74,55.05-25.58l-.73-.49c-9.99,10.96-26.06,16.81-44.33,16.81-29.96,0-58.95-24.84-58.95-71.61,0-6.78.72-13.07,1.92-19.36.01-.07.08-.13.15-.13h105.46c1.05,0,1.85-.88,1.83-1.92,0,0,0-.01,0-.02,0,0,0-.01,0-.02ZM609.48,110.39c-1.08,2.31-3.49,3.72-6.04,3.72h-79.43c-.1,0-.17-.09-.15-.19,5.89-27.67,23.39-46.82,45.75-46.82,25.33,0,37.02,23.63,39.95,40.92,0,.76.6.93-.08,2.37Z"/>
      <path d="M677.49,8.43c-.42.14-.71.6-.71,1.12v.29c0,.64.44,1.17.97,1.17h1.46c10.96,0,11.69,10.21,11.69,35.6v180.63c0,22.76-5.36,28.31-11.69,28.31h-1.7c-6.58,0-11.69-9.34-11.69-28.31V42.85c0-23.58-18.82-40.62-37.75-34.18h0v2.33h2.44c10.96,0,11.69,10.21,11.69,35.6v180.63c0,18.93,25.93,27.56,34.66,29.93.4.11.78.21,1.11.29.04.01.17.04.18.04.2.06.4.06.61,0,0,0,0,0,0,0,.01,0,.03-.01.05-.02.1-.03.2-.07.3-.11,0,0,0,0,0,0,8.06-2.93,35.42-14.04,35.42-30.15V41.96c0-23.14-18.47-39.86-37.05-33.54Z"/>
      <path d="M798.08,64.92c-45.31,0-72.59,34.1-72.59,75.75s27.28,75.75,72.59,75.75,72.34-33.86,72.34-75.75-27.04-75.75-72.34-75.75ZM798.08,214.47c-32.15,0-48.72-33.13-48.72-73.8s16.56-73.56,48.72-73.56,48.71,32.88,48.71,73.56-16.56,73.8-48.71,73.8Z"/>
      <path d="M891.12,89.76c0-16.81,20.22-23.87,37.02-23.87,26.79,0,47.5,21.92,51.15,44.09h1.22c0-21.64-15.31-40.34-36.57-44.38-5.39-1.03-10.85-1.65-16.04-1.65-23.38,0-56.51,8.28-56.51,37.51,0,41.9,96.21,42.87,96.21,83.06,0,29.23-33.37,30.2-40.68,30.2-25.36,0-46.89-20.36-53.19-44.93-.09-.36-.42-.62-.79-.62-.46,0-.83.37-.83.83h0c0,21.97,15.59,40.98,37.2,44.95,6.13,1.13,12.17,1.72,17.6,1.72,30.69,0,63.09-15.35,63.09-43.11,0-44.09-98.89-49.69-98.89-83.79Z"/>
      <path d="M798.29,131.75c-1.25-6.58-1.48-14.16-2.25-20.87-.98.2-1.02,1.07-1.1,1.88-.65,6.07-.12,14.92-1.75,20.55-.95,3.27-2.43,4.15-5.63,4.7-6.9,1.19-14.5,1.09-21.43,2.51,0,1.32,22.88.71,25.88,4.04,1.39,1.55,1.35,4.33,1.86,6.3l1.1,19.3c1.06-.22.95-1.09,1.09-1.9.71-4.36,1.68-21.76,3.96-24.05,2.21-2.23,16.87-2.44,20.78-2.87l4.62-1.08c-6.83-.97-14.66-.97-21.34-2.32-4.42-.9-4.96-1.82-5.79-6.18ZM795.52,142.96l-1.61-2.92c.4-.57,1.9-2.46,2.64-1.94l1.67,2.39-2.7,2.46Z"/>
      <path d="M90.64,1.8c-4.85-.74-9.45-1.08-14.64-1.35C61.29-.31,29.07-2.6,21.76,19.92c.34.09.69.22,1.04.39,7.3,3.57,16.05,6.96,22.39,12.4l-.73-2.82c-.53-2.05-.73-4.18-.61-6.3.84-13.83,6.74-20.07,15.97-20.07h5.85c63.33,0,101.33,47.25,101.33,105.47s-35.15,101.85-94.18,105.26c2.22-.82,4.41-1.8,6.56-2.95.06-.03.12-.06.17-.1.61-.33,1.22-.67,1.83-1.03.16-.1.32-.19.48-.29.5-.3,1-.61,1.5-.94.2-.13.41-.27.61-.4.46-.3.91-.62,1.36-.94.21-.15.43-.3.64-.46.46-.34.91-.68,1.36-1.03.19-.15.38-.29.57-.45.63-.51,1.26-1.03,1.87-1.57,15.59-13.65,20.47-36.45,9.41-54.56-4.35-7.12-11.33-11.47-16.82-17.58-6.8-7.57-14.53-18.32-11.8-29.01-.95-.96-2.83,2.51-3.24,3.17-4.11,6.55-7.07,16.44-6.21,24.15,1.36,12.13,17.52,18.23,16.12,32.96-2.02,21.31-34.9,24.59-42.07,2.42-10.45-32.31,43.67-65.32,33.85-106.02-2.63-10.88-11.95-19.96-21.71-24.82-1.45,1.04-.66.96-.47,1.79,1.57,6.82,5.02,12.1,5.54,20.11C54.94,95.73,5.91,118.8.51,158.68c-.13.94-.22,1.87-.3,2.8-.02.27-.04.53-.06.8-.05.7-.09,1.4-.11,2.09,0,.24-.02.49-.02.73-.02.9-.02,1.79,0,2.67,0,.14.01.27.02.4.03.76.07,1.5.13,2.25.02.26.04.51.07.77.07.68.14,1.36.24,2.03.03.19.05.39.08.58.13.84.27,1.67.44,2.5.04.18.08.35.12.53.14.66.29,1.31.46,1.96.06.23.12.47.18.7.19.69.39,1.38.61,2.06.03.11.06.22.1.33.26.79.54,1.56.83,2.33.07.18.15.36.22.54.24.6.49,1.2.75,1.79.09.19.17.39.26.58.69,1.49,1.44,2.93,2.27,4.32.1.16.19.32.29.48.34.57.7,1.13,1.07,1.68.09.14.18.27.27.41.46.68.94,1.36,1.43,2.02,0,.01.02.02.03.04.48.63.97,1.25,1.48,1.86.11.13.21.26.32.38.47.56.95,1.1,1.44,1.64.06.06.12.13.17.19.57.62,1.16,1.22,1.77,1.81.03.03.07.07.1.1.56.54,1.13,1.07,1.71,1.58.1.09.19.17.29.26,1.27,1.11,2.58,2.15,3.95,3.14.04.03.08.06.12.09.65.47,1.31.92,1.98,1.35.07.04.13.09.2.13,1.44.93,2.93,1.8,4.45,2.59.03.02.07.04.1.05.76.39,1.52.77,2.3,1.13,0,0,.02,0,.03.01,1.59.74,3.22,1.4,4.88,1.99.02,0,.05.02.07.03,2.49.88,5.05,1.59,7.65,2.11.01,0,.02,0,.03,0,2.62.53,5.28.87,7.96,1.03,0,0,0,0,0,0,1.09.13,2.18.21,3.3.21,14,0,30.75-1.27,33.85-1.39,62.05-2.33,106.73-49.39,106.73-107.33S155.19,11.72,90.64,1.8Z"/>
      <path d="M82.45,119.07l14.67,13.51c15.93-16.75-18.16-23.85-11.04-41.77-9.48,6.58-11.4,19.52-3.63,28.26Z"/>
    </g>
  </g>
</svg>